<?xml version="1.0" encoding="utf-8"?>
<!-- Generator: Adobe Illustrator 19.0.0, SVG Export Plug-In . SVG Version: 6.00 Build 0)  -->
<svg version="1.1" id="Livello_1" xmlns="http://www.w3.org/2000/svg" xmlns:xlink="http://www.w3.org/1999/xlink" x="0px" y="0px"
	 viewBox="0 0 224 150" enable-background="new 0 0 224 150" xml:space="preserve">
<g id="XMLID_3_">
	<path id="XMLID_4_" fill="#0000FF" d="M34.2,140.6c0,3.1-2.2,5.6-6.6,7.4c-3.3,1.4-6.8,2-10.6,2c-3.6,0-7.1-0.7-10.4-2
		c-4.4-1.8-6.6-4.3-6.6-7.4c0-3.2,2.2-5.7,6.6-7.5c3.3-1.4,6.8-2,10.4-2c3.7,0,7.2,0.7,10.6,2C32,134.9,34.2,137.4,34.2,140.6z
		 M224,61.6c0,3.6-1.1,6.5-3.4,8.7c-2.3,2.2-5.2,3.2-8.7,3.1c2,4.8,3.1,9.2,3.1,13c0,2.7-2.7,4.1-8.1,4.1c-1.8,0-3.5-0.2-5-0.5
		c0.8,1.8,1.2,3.7,1.2,5.7c0,2.8-0.9,5.4-2.7,7.9c-2,2.7-4.4,4.1-7.1,4.1c-4.2,0-8.1-1.9-11.5-5.8c-0.8,8.9-4.6,13.4-11.3,13.4
		c-6.7,0-11.1-1.4-13.4-4.3c-2.2,7-5.6,10.4-10.3,10.4c-8.9,0-14.5-1.9-16.7-5.8c-1.8,4.5-5.7,6.7-11.6,6.7c-5.9,0-9.3-2.2-10.1-6.5
		c-3.9,4.5-8.5,6.7-14,6.7c-5.5,0-9.1-2.5-10.7-7.6c-0.4,2.9-3.6,4.3-9.8,4.3c-3.7,0-6.7-1.2-8.9-3.7c0,5.8-2.6,10.6-7.9,14.3
		c-4.8,3.3-10.2,5-16.2,5c-6.1,0-11.5-1.7-16.2-5.1c-5.3-3.7-7.9-8.5-7.9-14.3c0-6.7,3.4-11.9,10.2-15.8c-3,0.3-5.5-0.5-7.7-2.5
		c-2.2-2-3.3-4.5-3.3-7.6c0-1.5,0.3-3.1,1-4.7C7.4,81.7,2.6,76.4,2.6,69c0-3.1,1.3-5.7,3.9-7.8c-3.5-3.8-5.2-9-5.2-15.8
		c0-3.5,1.9-6.1,5.8-7.7c3-1.3,6.5-1.9,10.3-1.7c-1.4-0.6-2.2-1.9-2.2-4c0-3.8,1.2-6.9,3.7-9.2c2.5-2.4,5.6-3.6,9.4-3.6
		c2.8,0,5.9,0.6,9.2,1.8c-1.4-2.2-2-4.3-2-6.5c0-3.8,2.7-5.7,8.2-5.7c9.1,0,15.2,1.1,18.3,3.4C62.2,5.5,64.9,2.2,70,2.2
		c5.1,0,10.7,1.8,17,5.4C87.3,2.5,89.8,0,94.6,0c4.9,0,11.3,2,19.2,6.1C113.2,2,116.1,0,122.7,0c6.5,0,11.3,2.5,14.3,7.6
		c0.6-4.2,5-6.4,13.2-6.4c3.4,0,6.3,1,8.7,3.1c2.4,2,3.6,4.8,3.8,8.2c3.3-3.9,6.1-5.8,8.5-5.8c2.2,0,4.1,0.8,5.6,2.4
		c1.5,1.6,2.3,3.5,2.3,5.8c0,0.5,0,0.9-0.1,1.2c3.5-2.3,6.9-3.4,10.3-3.4c3,0,5.5,1.3,7.4,4c1.9,2.6,2.9,5.5,2.9,8.6
		c0,0.9-0.1,1.6-0.2,2.2c1.4-1.8,3.4-2.7,5.9-2.7c2.9,0,5.4,1,7.7,3.1s3.4,4.5,3.4,7.3c0,6-1.3,10.9-4,14.6
		C220.1,51.1,224,55.1,224,61.6z"/>
</g>
<g id="XMLID_1_">
</g>
<g id="XMLID_2_">
</g>
<g id="XMLID_7_">
</g>
<g id="XMLID_8_">
</g>
<g id="XMLID_9_">
</g>
<g id="XMLID_10_">
</g>
<g id="XMLID_11_">
</g>
<g id="XMLID_12_">
</g>
<g id="XMLID_13_">
</g>
<g id="XMLID_14_">
</g>
<g id="XMLID_15_">
</g>
<g id="XMLID_16_">
</g>
<g id="XMLID_17_">
</g>
<g id="XMLID_18_">
</g>
<g id="XMLID_19_">
</g>
</svg>
